<?xml version="1.0" standalone="no"?>
<!DOCTYPE svg PUBLIC "-//W3C//DTD SVG 20010904//EN"
 "http://www.w3.org/TR/2001/REC-SVG-20010904/DTD/svg10.dtd">
<svg version="1.0" xmlns="http://www.w3.org/2000/svg"
 width="938.000000pt" height="938.000000pt" viewBox="0 0 938.000000 938.000000"
 preserveAspectRatio="xMidYMid meet">
<metadata>
Created by potrace 1.11, written by Peter Selinger 2001-2013
</metadata>
<g transform="translate(0.000000,938.000000) scale(0.100000,-0.100000)"
fill="#000000" stroke="none">
<path d="M6695 8908 c-2 -7 -7 -38 -9 -68 -3 -30 -8 -68 -10 -85 -3 -16 -7
-43 -10 -60 -11 -67 -36 -157 -71 -256 -13 -37 -21 -70 -18 -73 4 -3 1 -6 -5
-6 -7 0 -11 -3 -10 -7 7 -27 -105 -273 -199 -438 -123 -217 -284 -426 -464
-605 -133 -132 -136 -135 -244 -221 -100 -80 -136 -107 -205 -158 -30 -22 -60
-44 -65 -49 -6 -5 -24 -17 -40 -28 -17 -10 -32 -21 -35 -24 -3 -4 -42 -31 -87
-61 -46 -29 -83 -57 -83 -61 0 -5 -5 -8 -10 -8 -11 0 -63 -34 -88 -57 -7 -7
-17 -13 -22 -13 -5 0 -15 -6 -22 -12 -7 -7 -40 -33 -72 -58 -119 -90 -181
-162 -240 -280 -31 -61 -53 -110 -50 -110 2 0 -1 -10 -8 -22 -7 -13 -13 -27
-14 -33 -3 -32 -75 -195 -109 -251 -33 -52 -105 -130 -140 -151 -68 -42 -143
-67 -163 -54 -18 11 -5 38 23 45 27 7 145 121 145 141 0 7 4 15 9 17 6 2 80
197 83 218 3 24 70 227 90 270 40 90 93 190 101 190 4 0 7 6 7 13 0 35 200
257 350 389 62 54 90 77 210 178 173 145 213 181 295 259 325 313 518 602 551
827 12 78 9 185 -7 239 -26 91 -171 211 -222 183 -17 -9 -17 -11 -4 -26 27
-30 52 -124 51 -192 0 -39 -10 -95 -24 -140 -13 -41 -24 -80 -26 -86 -1 -6
-21 -51 -45 -100 -58 -120 -192 -326 -266 -409 -10 -11 -40 -48 -68 -83 -52
-65 -238 -250 -340 -337 -32 -27 -63 -55 -69 -60 -6 -6 -74 -64 -151 -130
-200 -172 -308 -281 -382 -386 -30 -43 -103 -180 -103 -193 0 -4 -9 -25 -19
-49 -22 -48 -40 -102 -47 -133 -2 -12 -18 -75 -35 -140 -17 -66 -33 -130 -36
-144 -11 -64 -55 -167 -82 -193 -27 -27 -30 -28 -57 -16 -53 26 -68 77 -69
229 0 97 5 139 25 200 6 19 13 42 15 50 4 18 60 137 77 165 31 48 129 183 155
212 15 17 42 49 60 70 17 21 50 58 73 83 23 25 56 63 73 84 18 21 44 53 58 70
78 92 132 201 143 291 11 96 -43 222 -115 266 -21 13 -39 28 -39 32 0 5 26 6
58 2 235 -29 408 32 440 157 15 56 0 67 -42 30 -38 -33 -90 -52 -146 -52 -33
0 -157 25 -245 50 -22 6 -47 12 -55 14 -8 2 -58 18 -110 36 -52 18 -99 33
-105 34 -5 2 -30 9 -55 16 -54 16 -49 15 -130 30 -192 35 -325 -7 -325 -104 0
-29 -3 -31 -35 -32 -19 -1 -38 -3 -42 -4 -5 -1 -27 -2 -49 -2 l-42 -1 -22 59
c-21 57 -23 59 -56 57 -29 -2 -69 -6 -69 -8 0 0 11 -22 25 -49 14 -27 25 -55
25 -61 0 -7 -26 -22 -57 -33 -81 -30 -136 -68 -167 -115 -48 -75 -44 -77 89
-37 39 11 88 23 110 26 41 4 41 4 39 -28 -1 -18 -3 -33 -4 -33 -1 0 -3 -10 -6
-22 -8 -44 -9 -48 -17 -54 -4 -3 -31 -7 -59 -8 -29 -1 -54 -4 -57 -7 -10 -10
20 -54 38 -54 38 0 42 -23 11 -76 -42 -75 -49 -78 -96 -47 -32 22 -50 27 -99
27 -50 0 -75 -7 -148 -43 -71 -35 -95 -42 -122 -37 -26 5 -33 3 -31 -8 6 -42
69 -76 140 -76 39 0 144 38 166 60 15 15 100 25 100 11 0 -12 -99 -81 -117
-81 -7 0 -13 -4 -13 -10 0 -5 -7 -10 -15 -10 -8 0 -40 -24 -72 -54 l-58 -54 0
-60 c0 -69 24 -105 76 -116 48 -9 45 -13 48 50 1 11 24 43 52 70 64 62 83 97
76 141 -3 18 -3 33 1 33 4 0 20 11 36 25 29 25 48 29 47 10 0 -10 39 -64 69
-97 22 -24 89 -46 125 -41 41 6 110 47 133 81 42 60 48 127 7 82 -10 -11 -34
-24 -53 -30 -32 -8 -38 -6 -65 20 -41 40 -93 63 -133 58 -19 -2 -34 -2 -34 0
0 2 24 39 52 83 36 54 59 79 73 80 11 0 30 2 43 5 12 2 30 5 40 7 9 1 23 6 30
10 6 5 12 6 12 4 0 -3 28 2 63 9 119 26 198 14 261 -38 76 -62 91 -162 40
-266 -38 -78 -176 -213 -394 -386 -96 -76 -180 -145 -186 -152 -6 -8 -14 -14
-17 -14 -16 0 -264 -241 -304 -295 -12 -17 -42 -58 -68 -93 -97 -133 -190
-367 -210 -528 -19 -159 6 -363 62 -490 9 -21 17 -41 18 -44 5 -23 72 -137
106 -181 55 -70 227 -239 244 -239 3 0 28 -16 57 -36 45 -32 294 -166 301
-162 1 1 40 -13 87 -31 47 -19 90 -34 95 -36 6 -1 19 -5 30 -9 53 -20 80 -28
208 -61 75 -20 141 -34 146 -30 5 3 13 0 16 -6 4 -5 13 -8 20 -5 7 2 16 2 19
-2 4 -3 14 -7 24 -8 88 -9 139 -18 149 -26 31 -25 70 -215 67 -323 -3 -101
-17 -182 -35 -217 -24 -46 71 11 137 80 l32 34 5 -28 c7 -37 20 -113 23 -139
1 -11 5 -31 9 -45 3 -14 8 -38 10 -53 5 -34 48 -198 77 -292 12 -38 23 -73 24
-77 1 -5 3 -10 4 -13 1 -3 3 -8 5 -12 1 -5 5 -17 10 -28 4 -11 21 -54 37 -95
16 -41 44 -106 63 -145 45 -96 46 -101 25 -120 -16 -14 -26 -15 -67 -7 -27 6
-71 20 -98 32 -27 11 -54 19 -61 16 -7 -3 -14 -1 -16 4 -2 4 -25 11 -53 15
-27 3 -51 8 -53 9 -1 2 -23 -1 -49 -5 -50 -10 -72 -31 -73 -70 0 -23 -4 -26
-32 -26 -76 -1 -88 -4 -122 -37 -43 -40 -49 -91 -15 -122 21 -18 21 -18 41 9
26 35 61 53 121 61 53 7 58 2 22 -26 -14 -11 -32 -33 -40 -49 -9 -16 -16 -30
-18 -31 -1 -2 8 -17 21 -35 25 -36 82 -62 82 -37 0 20 3 27 20 47 18 23 94 62
135 71 17 3 41 9 55 12 50 10 198 18 345 18 162 0 242 -7 342 -28 37 -8 82
-36 99 -61 16 -25 17 -25 43 -9 35 22 54 43 68 75 14 32 12 48 -9 81 -27 40
-87 55 -228 55 -90 0 -135 5 -162 16 -44 19 -91 80 -114 150 -9 29 -21 58 -27
64 -5 7 -7 13 -4 13 3 0 -2 21 -10 48 -22 70 -21 69 -47 179 -13 56 -27 117
-29 135 -3 18 -8 44 -11 58 -4 14 -8 43 -11 65 -2 22 -7 54 -11 70 -3 17 -7
46 -9 65 -2 19 -6 68 -10 109 l-8 73 46 -27 c83 -48 204 -69 240 -42 16 11 12
16 -37 55 -49 39 -106 96 -106 106 0 2 -18 31 -40 64 -22 33 -40 66 -40 74 0
8 -4 18 -9 23 -10 10 -46 135 -57 195 -8 45 -7 165 1 232 4 30 3 53 -3 57 -98
61 -492 469 -492 509 0 7 -4 12 -9 12 -5 0 -17 16 -27 36 -11 20 -29 55 -41
78 -59 113 -101 328 -60 313 6 -2 11 -10 10 -16 -2 -6 2 -11 9 -11 6 0 9 -3 5
-6 -6 -6 6 -36 62 -158 35 -76 124 -215 168 -262 98 -106 141 -149 228 -229
248 -227 347 -339 410 -465 24 -48 60 -141 63 -163 1 -8 13 -71 19 -102 2 -11
3 -61 4 -112 0 -51 4 -95 9 -98 30 -19 70 164 65 300 -1 50 -3 90 -4 90 -2 0
-4 14 -6 30 -17 131 -111 334 -205 440 -52 59 -150 154 -210 205 -270 226
-343 297 -426 405 -104 136 -113 222 -13 118 152 -158 365 -287 524 -318 87
-17 226 -23 270 -12 90 23 191 77 278 149 69 58 64 65 -45 68 -158 3 -188 5
-188 10 0 3 -15 6 -32 6 -18 1 -45 4 -60 8 -16 3 -40 8 -55 11 -99 20 -232 65
-331 113 -73 35 -87 55 -41 58 119 8 227 53 300 126 51 51 62 78 32 78 -96 0
-303 10 -321 15 -37 12 -20 27 33 31 102 8 272 67 335 117 29 22 90 110 90
128 0 24 -2 23 -130 -2 -58 -11 -121 -21 -140 -23 -20 -1 -40 -4 -45 -7 -19
-10 -148 -4 -152 7 -3 8 71 31 162 50 57 12 225 95 266 131 63 56 103 162 59
156 -8 -1 -69 -21 -135 -44 -66 -22 -127 -42 -135 -44 -122 -28 -205 -43 -212
-39 -17 11 -7 23 25 29 17 4 37 10 42 14 6 3 12 6 15 7 8 1 38 14 123 49 153
65 246 136 286 218 23 48 28 112 9 120 -7 2 -54 -15 -103 -38 -50 -23 -108
-48 -130 -55 -22 -7 -46 -17 -52 -23 -7 -5 -13 -6 -13 -2 0 4 -6 3 -12 -3 -18
-14 -75 -25 -81 -15 -3 5 116 89 265 188 227 151 347 237 503 362 209 167 453
429 635 683 29 41 58 78 64 82 6 4 7 8 3 8 -4 0 11 27 34 61 45 67 224 409
213 409 -4 0 -2 6 4 13 21 26 66 195 69 262 4 85 -21 177 -69 253 -38 60 -75
91 -83 70z m-2498 -1225 c35 -8 61 -18 58 -21 -12 -12 -171 -40 -197 -35 -28
5 -50 44 -40 72 5 16 78 10 179 -16z m-322 -113 c14 -5 25 -17 25 -28 0 -21
-33 -56 -43 -45 -4 3 -7 1 -7 -5 0 -7 -8 -12 -18 -12 -10 0 -22 -3 -26 -7 -3
-4 -12 -8 -19 -9 -7 -1 -31 -5 -54 -8 l-43 -7 11 28 c9 24 14 50 18 98 1 12
121 8 156 -5z m12 -1183 c-36 -55 -98 -177 -90 -177 4 0 3 -4 -3 -8 -15 -10
-71 -181 -87 -268 -14 -73 -15 -232 -3 -319 7 -45 25 -115 59 -227 6 -21 15
-38 19 -38 4 0 8 -6 8 -13 0 -30 75 -157 143 -242 79 -98 250 -248 335 -294
12 -6 22 -16 22 -21 0 -11 -35 -8 -46 3 -4 4 -17 7 -29 7 -11 0 -25 4 -31 8
-5 5 -31 17 -59 27 -27 10 -66 28 -85 39 -19 12 -46 27 -60 34 -61 31 -201
148 -258 216 -69 82 -162 250 -176 316 -3 14 -12 54 -20 90 -14 60 -16 296 -4
340 3 8 10 35 17 60 18 63 81 195 125 259 20 29 36 55 36 57 0 2 8 12 18 22 9
10 33 36 52 57 20 22 53 55 74 73 40 35 66 35 43 -1z"/>
<path d="M6906 8408 c-9 -21 -16 -39 -16 -41 0 -3 -7 -21 -15 -41 -8 -20 -16
-39 -16 -43 -2 -12 -88 -175 -100 -190 -6 -7 -9 -13 -5 -13 12 0 -199 -340
-224 -360 -3 -3 -17 -21 -30 -40 -26 -37 -34 -46 -101 -125 -42 -50 -92 -105
-159 -175 -126 -132 -147 -160 -118 -160 12 0 88 56 148 110 173 154 331 308
421 412 30 34 60 67 67 75 7 7 10 13 5 13 -4 0 -2 4 4 8 22 14 123 155 148
207 45 93 62 223 41 310 -2 11 -5 27 -5 36 -1 8 -7 24 -15 35 -14 18 -15 17
-30 -18z"/>
<path d="M6167 8286 c-10 -136 -99 -372 -188 -498 -11 -14 -19 -31 -19 -36 0
-6 -3 -12 -7 -14 -5 -1 -42 -48 -83 -103 -89 -118 -272 -306 -425 -435 -60
-51 -121 -102 -135 -114 -14 -11 -63 -52 -110 -91 -47 -38 -90 -74 -96 -80 -6
-5 -46 -41 -89 -80 -130 -116 -210 -205 -185 -205 6 0 8 -5 4 -11 -10 -16 34
-1 55 19 9 10 32 29 51 44 62 48 147 113 166 126 11 7 73 51 139 98 66 46 144
101 174 122 30 20 61 44 70 53 10 8 39 32 67 53 324 247 646 660 700 898 23
101 15 201 -23 276 -44 86 -59 81 -66 -22z"/>
<path d="M6827 7806 c-15 -19 -33 -40 -40 -48 -7 -7 -20 -23 -28 -36 -9 -12
-31 -39 -50 -60 -19 -20 -49 -54 -66 -75 -18 -21 -33 -35 -33 -31 0 4 -10 -6
-22 -22 -38 -49 -258 -257 -333 -316 -17 -12 -46 -37 -65 -55 -19 -18 -38 -33
-42 -33 -4 0 -13 -6 -20 -13 -51 -52 -486 -350 -578 -397 -34 -17 -33 -16 -21
-39 27 -50 23 -117 -14 -204 -10 -23 34 1 225 120 74 46 144 89 154 96 42 26
284 206 331 246 254 216 408 384 518 561 26 41 51 81 57 87 6 7 10 15 10 18 0
3 13 34 29 70 17 36 32 75 33 87 2 13 6 28 9 33 10 19 4 40 -12 43 -9 2 -28
-12 -42 -32z"/>
<path d="M6452 7030 c-234 -227 -515 -429 -815 -585 l-102 -53 -2 -58 c-1 -58
-25 -137 -49 -165 -18 -20 -18 -26 1 -26 8 0 15 4 15 9 0 5 5 6 10 3 6 -3 10
-1 10 6 0 7 3 10 6 6 14 -13 345 165 484 262 177 122 373 305 462 431 68 96
138 256 120 274 -14 14 -34 -1 -140 -104z"/>
<path d="M6323 6558 c-21 -18 -40 -36 -43 -39 -11 -12 -170 -128 -192 -140
-13 -7 -25 -15 -28 -18 -8 -11 -110 -71 -119 -71 -5 0 -16 -6 -23 -12 -12 -12
-166 -93 -178 -93 -3 -1 -21 -8 -40 -17 -82 -39 -137 -61 -175 -72 -28 -8 -40
-18 -41 -31 -5 -70 -22 -135 -35 -135 -6 0 -8 -4 -5 -9 3 -5 -10 -25 -29 -45
-19 -21 -35 -41 -35 -46 0 -4 26 -1 58 7 31 8 62 16 69 17 7 1 16 5 19 9 4 4
13 7 20 7 7 0 25 5 41 12 15 6 30 12 33 13 111 37 345 177 469 280 141 117
277 293 296 383 9 43 -12 43 -62 0z"/>
<path d="M6143 6086 c-83 -84 -423 -251 -589 -291 -10 -3 -58 -14 -105 -25
l-85 -21 1 -32 c2 -62 -52 -141 -133 -192 -23 -16 -41 -30 -39 -31 6 -6 50 -6
82 0 103 18 121 24 245 69 139 50 380 184 380 210 0 6 3 8 6 4 8 -7 50 29 150
128 80 80 134 152 134 179 0 17 -31 18 -47 2z"/>
<path d="M5815 5604 c-128 -72 -359 -149 -490 -163 -5 -1 -3 -6 6 -11 35 -20
281 -32 374 -18 39 6 56 15 78 40 41 48 127 170 127 180 0 16 -36 6 -95 -28z"/>
<path d="M4904 5149 c-3 -6 -2 -14 4 -18 6 -4 33 -25 59 -48 26 -23 116 -93
198 -157 273 -210 366 -304 502 -511 112 -170 161 -283 209 -480 23 -93 27
-133 28 -255 0 -137 -12 -219 -50 -342 -12 -38 25 -16 59 35 186 281 257 622
186 892 -76 287 -258 498 -549 638 -52 25 -102 47 -110 49 -8 2 -17 5 -20 8
-4 5 -61 26 -205 77 -22 7 -47 17 -55 20 -8 3 -17 7 -20 8 -38 9 -183 70 -222
91 -4 3 -10 -1 -14 -7z"/>
<path d="M3869 4328 c-2 -87 -22 -210 -49 -300 -11 -33 -17 -65 -15 -69 3 -4
1 -9 -3 -11 -4 -1 -20 -36 -34 -75 l-25 -73 31 0 c36 0 130 46 187 91 22 17
42 30 44 28 3 -4 -16 -70 -32 -109 -3 -8 -7 -19 -8 -25 -2 -5 -26 -66 -55
-135 -80 -189 -171 -367 -283 -553 -56 -92 -111 -183 -123 -202 -11 -20 -35
-46 -52 -59 -42 -30 -111 -28 -212 8 -135 48 -250 30 -250 -41 0 -19 -5 -23
-34 -23 -18 0 -54 -3 -80 -6 -89 -13 -134 -88 -87 -145 l20 -24 33 31 c45 43
89 64 145 69 66 5 71 -3 23 -35 -52 -35 -67 -56 -67 -100 1 -40 10 -52 53 -67
33 -12 61 -3 49 16 -11 18 61 79 108 92 49 13 89 19 168 23 31 2 61 5 65 7 13
6 329 2 404 -5 81 -8 92 -10 108 -19 6 -5 12 -6 12 -2 0 3 18 -4 40 -15 36
-18 44 -29 42 -52 -1 -3 5 -8 12 -11 33 -13 87 58 92 120 2 40 -40 87 -89 98
-18 4 -35 9 -39 10 -5 1 -67 3 -138 4 -126 1 -131 2 -141 24 -9 21 0 38 80
153 50 71 100 140 110 154 116 152 314 438 317 459 0 3 4 15 9 26 32 78 44
118 50 168 4 31 10 57 13 57 3 0 28 -18 57 -39 48 -36 132 -74 146 -65 4 2
-13 43 -37 91 -24 48 -44 98 -44 110 0 13 -4 23 -8 23 -4 0 -9 14 -10 31 -1
18 -6 37 -10 43 -4 6 -7 18 -8 26 -1 33 -15 156 -19 175 -2 12 -12 21 -22 22
-10 1 -31 4 -48 8 -16 3 -41 8 -55 11 -47 9 -125 36 -228 80 -57 24 -106 44
-108 44 -2 0 -4 -19 -5 -42z"/>
<path d="M5649 2332 c-121 -25 -183 -52 -274 -117 -74 -53 -175 -165 -175
-194 0 -5 -4 -11 -8 -13 -17 -7 -77 -160 -87 -223 -1 -5 -3 -12 -4 -15 -7 -16
-12 -52 -14 -110 -2 -36 -6 -71 -10 -77 -5 -7 -5 -13 0 -13 4 0 8 -26 7 -58 0
-31 2 -61 5 -67 3 -5 6 -16 6 -25 5 -52 21 -112 44 -169 43 -106 55 -131 63
-131 5 0 8 -7 8 -15 0 -19 165 -185 184 -185 7 0 19 -6 25 -13 17 -21 138 -65
222 -80 73 -13 237 -15 276 -3 10 3 36 8 58 12 22 3 47 9 55 14 8 4 21 5 28 3
6 -3 12 -1 13 4 2 21 11 66 32 160 13 57 22 103 19 103 -2 0 -21 -13 -41 -28
-76 -60 -149 -95 -226 -108 -53 -9 -125 -11 -125 -4 0 4 -12 6 -27 5 -58 -3
-156 47 -224 114 -129 130 -191 385 -155 636 10 62 54 195 72 216 8 8 14 20
14 26 0 6 22 36 49 65 49 53 123 102 171 112 14 3 36 8 50 11 117 26 262 -17
368 -110 l52 -47 0 134 c0 73 -5 140 -10 148 -5 8 -10 12 -10 9 0 -4 -27 2
-61 12 -108 34 -267 43 -370 21z"/>
<path d="M2604 2289 c-2 -4 1 -20 6 -34 31 -81 33 -132 35 -664 2 -524 -2
-602 -29 -683 -7 -20 -10 -40 -7 -45 8 -10 42 -10 59 1 7 4 19 3 27 -4 9 -7
15 -8 20 0 4 7 12 7 26 0 13 -8 25 -7 39 0 11 6 26 8 32 4 17 -11 58 -11 64
-2 3 5 11 5 17 1 16 -10 48 -10 71 0 13 7 16 6 11 -3 -6 -9 -3 -9 12 -1 14 7
23 7 30 0 8 -8 13 -7 17 0 5 8 13 8 27 1 13 -8 25 -7 39 0 11 6 26 8 32 3 18
-10 81 -10 96 1 8 6 17 5 23 -1 5 -5 20 -8 33 -6 24 5 47 63 71 175 3 15 10
39 15 53 16 43 12 45 -40 19 -94 -47 -138 -56 -307 -61 l-163 -5 0 78 c-2 825
2 1054 19 1102 2 5 3 8 6 23 1 9 6 25 9 36 6 18 -1 19 -140 19 -80 0 -147 -3
-150 -7z"/>
<path d="M3970 2287 c0 -4 6 -20 14 -35 41 -80 45 -147 46 -682 0 -351 -3
-534 -11 -575 -7 -33 -13 -67 -14 -75 0 -8 -7 -26 -14 -39 -13 -23 -12 -24 13
-19 15 3 29 1 32 -4 3 -4 9 -6 14 -3 10 6 78 8 105 2 11 -3 26 0 33 6 9 7 16
7 24 -1 8 -8 17 -8 30 -1 13 7 18 6 18 -3 0 -8 3 -9 10 -2 7 7 6 23 -4 51 -22
63 -29 150 -30 396 -2 198 0 227 14 228 108 7 214 -6 267 -33 31 -15 57 -4 44
20 -6 11 -6 24 0 35 6 9 6 17 2 17 -10 0 -8 63 2 79 3 6 1 11 -5 11 -6 0 -8 4
-5 10 11 19 14 50 4 55 -5 4 -7 11 -4 16 4 5 2 9 -4 9 -5 0 -13 -4 -16 -10
-11 -18 -91 -33 -188 -34 -57 -1 -102 3 -105 9 -4 5 -7 103 -7 217 l0 207 141
-3 c146 -4 191 -13 259 -52 l40 -23 -2 62 c-1 34 -2 87 -2 117 l-1 56 -350 0
c-192 0 -350 -4 -350 -9z"/>
<path d="M3591 1044 c-70 -59 -58 -179 22 -220 113 -59 193 140 90 223 -37 30
-74 29 -112 -3z"/>
<path d="M4714 1041 c-45 -44 -56 -103 -32 -158 28 -62 78 -84 132 -58 86 41
82 206 -6 233 -48 15 -66 12 -94 -17z"/>
<path d="M6376 1045 c-13 -11 -29 -30 -35 -42 -17 -34 -13 -102 9 -138 56 -91
177 -52 184 61 3 63 -10 96 -49 122 -37 26 -76 25 -109 -3z"/>
</g>
</svg>
